<?xml version="1.0" encoding="utf-8"?><!--Generator: Adobe Illustrator 19.2.0, SVG Export Plug-In . SVG Version: 6.00 Build 0)--><svg xmlns="http://www.w3.org/2000/svg" xmlns:xlink="http://www.w3.org/1999/xlink" x="0px" y="0px" enable-background="new 0 0 128 128" version="1.1" viewBox="0 0 128 128" xml:space="preserve"><g id="Layer_1"><path fill="#FFFFFF" d="M128,118c0,5.523-4.477,10-10,10H10c-5.522,0-10-4.477-10-10V10C0,4.478,4.478,0,10,0h108
		c5.523,0,10,4.478,10,10V118z"/><g display="none"><g display="inline"><g><path fill="#FFFFFF" fill-rule="evenodd" d="M-77.949,217.641c10.875,0,16.316-0.719,16.316-9.062
					c0-8.703-5.441-9.789-16.316-9.789h-40.609v-23.93h39.52c14.867,0,25.383,1.086,33.359,6.523
					c9.062,5.805,13.051,14.508,13.051,26.469c0,21.391-12.688,33-36.617,33h-18.496v29.359h-30.816v-52.57H-77.949L-77.949,217.641
					z" clip-rule="evenodd"/><path fill="#FFFFFF" fill-rule="evenodd" d="M20.672,172.32c30.82,0,49.672,19.219,49.672,50.398
					c0,30.82-18.852,50.031-49.672,50.031s-50.039-19.211-50.039-50.031C-29.367,191.539-10.148,172.32,20.672,172.32L20.672,172.32
					z M20.672,248.82c13.055,0,18.492-8.336,18.492-26.102c0-18.133-5.438-26.469-18.492-26.469s-18.855,8.336-18.855,26.469
					C1.816,240.484,7.617,248.82,20.672,248.82L20.672,248.82z" clip-rule="evenodd"/><path fill="#FFFFFF" fill-rule="evenodd" d="M105.875,238.672c0.734,8.344,5.805,11.234,14.141,11.234
					c7.609,0,11.609-2.531,11.609-6.883c0-5.805-5.445-6.164-16.688-9.07c-13.414-3.625-22.117-6.523-26.102-9.422
					c-7.617-5.078-10.883-12.328-10.883-21.758c0-18.492,14.508-30.453,39.891-30.453c25.016,0,40.242,11.242,41.336,31.906h-29.008
					c-0.367-7.617-5.078-10.148-12.695-10.148c-6.523,0-9.789,1.812-9.789,6.523c0,4.711,5.078,5.797,14.141,8.336
					c11.961,2.906,21.398,4.719,27.562,8.703c8.328,5.805,12.328,12.688,12.328,22.477c0,20.672-14.867,32.633-42.789,32.633
					c-25.742,0-42.055-11.961-42.781-34.078H105.875L105.875,238.672z" clip-rule="evenodd"/><polygon fill="#FFFFFF" fill-rule="evenodd" points="189.633,199.875 162.078,199.875 162.078,174.859 
					247.281,174.859 247.281,199.875 220.453,199.875 220.453,270.211 189.633,270.211 189.633,199.875 				" clip-rule="evenodd"/><path fill="#FFFFFF" fill-rule="evenodd" d="M-113.117,154.555l-1.816,6.523h-4.352l8.703-26.828h4.715
					l7.977,26.828h-4.352l-1.812-6.523H-113.117L-113.117,154.555z M-108.406,139.32l-3.625,11.609h6.887L-108.406,139.32
					L-108.406,139.32z" clip-rule="evenodd"/><path fill="#FFFFFF" fill-rule="evenodd" d="M-92.816,134.25v17.039c0,2.898,0,5.078,1.453,7.25
					c1.809,2.18,3.988,2.906,6.887,2.906c2.898,0,5.074-0.727,6.164-1.812c1.812-1.82,2.539-4.352,2.539-8.703v-16.68h-3.992v17.406
					c0,1.812,0,3.258-0.723,4.344c-0.727,1.453-1.812,2.18-3.988,2.18c-1.812,0-2.898-0.727-3.625-2.18
					c-0.727-1.086-0.727-2.531-0.727-4.711V134.25H-92.816L-92.816,134.25z" clip-rule="evenodd"/><path fill="#FFFFFF" fill-rule="evenodd" d="M-69.246,153.102c0,0.367,0,0.367,0,0.367
					c0,0.359,0,0.359,0,0.359c0,2.539,0.723,4.352,1.809,5.805c1.453,1.086,3.266,1.812,6.164,1.812c2.902,0,5.078-0.727,6.527-2.18
					c1.09-1.086,1.812-2.898,1.812-5.438c0-3.266-2.176-4.711-5.438-6.891l-1.449-1.086c-3.266-1.812-5.078-3.258-5.078-5.438
					c0-1.094,0.363-1.82,1.09-2.539c0.723-0.359,1.449-1.086,2.898-1.086c1.09,0,1.812,0.359,2.539,1.086
					c0.727,0.719,1.086,1.812,1.086,3.266v0.727h3.988v-1.094c0-2.18-0.359-3.984-1.812-5.07c-1.086-1.453-3.262-2.18-5.801-2.18
					c-4.711,0-7.977,2.898-7.977,7.25c0,3.992,1.812,5.438,5.801,7.977l1.09,0.727c3.262,1.812,5.074,2.898,5.074,5.078
					c0,2.172-1.812,3.625-4.352,3.625c-1.086,0-1.812-0.367-2.535-0.727c-0.727-0.727-1.09-1.812-1.09-3.625v-0.727H-69.246
					L-69.246,153.102L-69.246,153.102z" clip-rule="evenodd"/><polygon fill="#FFFFFF" fill-rule="evenodd" points="-39.879,137.516 -39.879,161.078 -43.871,161.078 
					-43.871,137.516 -50.395,137.516 -50.395,134.25 -33.356,134.25 -33.356,137.516 -39.879,137.516 				" clip-rule="evenodd"/><path fill="#FFFFFF" fill-rule="evenodd" d="M-16.676,147.305c2.539,0.359,3.262,2.539,3.262,5.438
					c0,0.727,0,1.086,0,1.445c0,0.367,0,0.727,0,1.094c0,2.172,0.363,3.984,0.727,5.438v0.359h-3.988h-0.363
					c-0.359-1.812-0.359-3.984-0.359-6.164c0-0.727,0-1.445,0-2.172c0-2.898-0.727-3.625-2.902-3.625h-3.988v11.961h-3.988V134.25
					h7.254c3.262,0,5.438,0.359,6.523,1.812c1.086,1.086,1.812,2.531,1.812,4.711C-12.688,144.039-14.137,146.211-16.676,147.305
					L-16.676,147.305z M-17.762,138.234c-0.727-0.359-1.449-0.719-2.902-0.719h-3.625v7.977h2.176c3.625,0,5.438-1.086,5.438-4.352
					C-16.676,140.047-17.039,138.961-17.762,138.234L-17.762,138.234z" clip-rule="evenodd"/><path fill="#FFFFFF" fill-rule="evenodd" d="M7.254,154.555h-9.066l-1.805,6.523h-4.355L0.73,134.25h4.348
					l8.34,26.828H9.07L7.254,154.555L7.254,154.555z M2.906,139.32l-3.625,11.609h6.887L2.906,139.32L2.906,139.32z" clip-rule="evenodd"/><polygon fill="#FFFFFF" fill-rule="evenodd" points="22.844,157.453 22.844,134.25 18.859,134.25 
					18.859,161.078 31.91,161.078 31.91,157.453 22.844,157.453 				" clip-rule="evenodd"/><polygon fill="#FFFFFF" fill-rule="evenodd" points="36.262,161.078 40.25,161.078 40.25,134.25 
					36.262,134.25 36.262,161.078 36.262,161.078 				" clip-rule="evenodd"/><path fill="#FFFFFF" fill-rule="evenodd" d="M60.922,154.555h-9.066l-1.816,6.523h-4.348l8.332-26.828
					h4.719l8.34,26.828h-4.355L60.922,154.555L60.922,154.555z M56.203,139.32l-3.262,11.609h6.887L56.203,139.32L56.203,139.32z" clip-rule="evenodd"/></g></g><g display="inline"><path fill="#FFFFFF" fill-rule="evenodd" d="M26.352-139.203c-53.113,15.851-91.16,64.207-91.16,122.062
				c0,58.664,38.047,107.016,91.16,122.875V-139.203L26.352-139.203z" clip-rule="evenodd"/><path fill="#FFFFFF" fill-rule="evenodd" d="M63.605-144.754c-3.172,0-5.551,0-8.719,0v13.477
				c1.582,0,3.168,0,5.547,0c43.598,0,80.059,35.672,80.059,79.27c0,43.598-35.672,79.262-79.266,80.055v83.242
				c0.793,0,1.586,0,2.379,0c71.34,0,129.207-57.086,129.207-128.43C192.812-87.68,134.945-144.754,63.605-144.754L63.605-144.754z" clip-rule="evenodd"/></g></g><g><path fill="#FF6600" d="M30.799,35.919c0,0,58.969-12.676,64.481-13.779c0,0,8.819,70.633,9.92,73.344
			C105.2,95.484,93.077,44.186,30.799,35.919z"/><path fill="#FFCC00" d="M16.471,52.961c0,0,58.972-12.677,64.48-13.78c0,0,8.82,70.635,9.921,73.346
			C90.872,112.527,78.748,61.228,16.471,52.961z"/></g></g><g id="Layer_2"/></svg>